<mxfile host="app.diagrams.net" modified="2024-03-22T08:51:31.247Z" agent="Mozilla/5.0 (Windows NT 10.0; Win64; x64) AppleWebKit/537.36 (KHTML, like Gecko) Chrome/116.0.5803.203 Safari/537.36 Edg/109.0.1556.34/XUJQ" etag="aE0EP144HTd8MWTzvkr5" version="24.0.7" type="github">
  <diagram name="第 1 页" id="mMfIaWV528blGj_FPjA1">
    <mxGraphModel dx="1173" dy="759" grid="1" gridSize="10" guides="1" tooltips="1" connect="1" arrows="1" fold="1" page="1" pageScale="1" pageWidth="827" pageHeight="1169" math="0" shadow="0">
      <root>
        <mxCell id="0" />
        <mxCell id="1" parent="0" />
        <mxCell id="VsaA7CyX7SS0eQJFRgGS-1" value="" style="rounded=1;whiteSpace=wrap;html=1;" vertex="1" parent="1">
          <mxGeometry x="350" y="10" width="120" height="60" as="geometry" />
        </mxCell>
      </root>
    </mxGraphModel>
  </diagram>
</mxfile>
